<?xml version="1.0" encoding="iso-8859-1"?>
<!-- Generator: Adobe Illustrator 19.0.0, SVG Export Plug-In . SVG Version: 6.00 Build 0)  -->
<svg version="1.1" id="Capa_1" xmlns="http://www.w3.org/2000/svg" xmlns:xlink="http://www.w3.org/1999/xlink" x="0px" y="0px"
	 viewBox="0 0 512 512" style="enable-background:new 0 0 512 512;" xml:space="preserve">
<path style="fill:#9C969E;" d="M222.968,441.806h-16.516v-33.032h-16.516v33.032h-41.29c-4.565,0-8.258,3.698-8.258,8.258
	s3.694,8.258,8.258,8.258h74.323c4.565,0,8.258-3.698,8.258-8.258S227.532,441.806,222.968,441.806z"/>
<g>
	<path style="fill:#867E88;" d="M156.903,458.323h-8.258c-4.542,0-8.258-3.716-8.258-8.258l0,0c0-4.542,3.716-8.258,8.258-8.258
		h8.258c4.542,0,8.258,3.716,8.258,8.258l0,0C165.161,454.606,161.445,458.323,156.903,458.323z"/>
	<path style="fill:#867E88;" d="M222.968,458.323L222.968,458.323c-4.542,0-8.258-3.716-8.258-8.258l0,0
		c0-4.542,3.716-8.258,8.258-8.258l0,0c4.542,0,8.258,3.716,8.258,8.258l0,0C231.226,454.606,227.51,458.323,222.968,458.323z"/>
</g>
<g>
	<path style="fill:#AF6E5A;" d="M129.032,307.097l48.155,100.542c2.743,5.74,8.54,9.394,14.901,9.394h12.903
		c5.998,0,11.525-3.252,14.438-8.495l46.377-83.376L129.032,307.097z"/>
	<path style="fill:#AF6E5A;" d="M165.161,144.516l-23.687-52.112c-10.721-23.585-34.236-38.727-60.143-38.727H57.806
		c-13.682,0-24.774,11.092-24.774,24.774h-8.258C11.092,78.452,0,89.543,0,103.226v8.258h33.032c9.121,0,16.516,7.394,16.516,16.516
		v57.806c0,65.154,37.526,121.912,92.528,148.374c32.031,15.411,79.461,15.877,93.811,13.963l136.629-18.337L165.161,144.516z"/>
</g>
<path style="fill:#965A50;" d="M341.638,309.677H214.71c-77.534,0-140.387-62.853-140.387-140.387V128
	c0-18.243-14.789-33.032-33.032-33.032H1.517C0.595,97.563,0,100.315,0,103.226v8.258h33.032c9.121,0,16.516,7.394,16.516,16.516
	v57.806c0,65.154,37.526,121.912,92.528,148.374c32.031,15.411,79.461,15.877,93.811,13.963l136.629-18.337L341.638,309.677z"/>
<path style="fill:#64464B;" d="M476.387,323.613l-39.146,21.438c-3.697,2.032-8.032,2.572-12.115,1.509l-245.514-68.883
	l84.645-34.581L476.387,323.613z"/>
<path style="fill:#824D51;" d="M504.955,304.746l-97.213-67.843L280,270.452l221.286,68.921c5.316,1.656,10.714-2.317,10.714-7.884
	v-13.212C512,312.887,509.37,307.837,504.955,304.746z"/>
<path style="fill:#965A50;" d="M82.581,86.71H57.806c-4.565,0-8.258-3.698-8.258-8.258s3.694-8.258,8.258-8.258H82.58
	c4.565,0,8.258,3.698,8.258,8.258S87.145,86.71,82.581,86.71z"/>
<path style="fill:#6F6571;" d="M33.032,86.71v-8.258h-8.258C11.092,78.452,0,89.543,0,103.226v8.258
	c0,4.561,3.697,8.258,8.258,8.258l0,0c4.561,0,8.258-3.697,8.258-8.258l0,0H41.29c4.561,0,8.258-3.697,8.258-8.258l0,0
	c0-4.561-3.697-8.258-8.258-8.258l0,0C36.73,94.968,33.032,91.27,33.032,86.71z"/>
<path style="fill:#4B3F4E;" d="M66.064,94.968L66.064,94.968c-4.542,0-8.258-3.716-8.258-8.258l0,0c0-4.542,3.716-8.258,8.258-8.258
	l0,0c4.542,0,8.258,3.716,8.258,8.258l0,0C74.323,91.252,70.606,94.968,66.064,94.968z"/>
<path style="fill:#5D5360;" d="M8.258,119.742c4.561,0,8.258-3.698,8.258-8.258H41.29c4.561,0,8.258-3.698,8.258-8.258
	c0-4.561-3.697-8.258-8.258-8.258H16.516C7.395,94.968,0,102.362,0,111.484C0,116.044,3.697,119.742,8.258,119.742z"/>
<path style="fill:#C0826C;" d="M482.355,240.169c-4.919-4.334-120.711-104.066-321.054-101.106
	c-7.502,0.111-13.49,4.953-17.762,11.12c-10.377,14.977-20.719,45.083-16.88,65.233c7.535,39.55,324.014,21.785,324.014,21.785
	l7.568,5.241c8.484,6.068,12.986,9.932,13.211,10.129c1.573,1.375,3.508,2.048,5.444,2.048c2.298,0,4.581-0.948,6.21-2.806
	C486.113,248.391,485.782,243.177,482.355,240.169z"/>
<path style="fill:#965A50;" d="M416.291,216.452l-28.799-14.363c-15.961-7.305-34.066-14.54-54.196-21.052
	c-49.849-16.127-111.467-20.947-159.189-11.402c-13.763,2.753-47.14,12.731-47.449,45.783c-0.162,17.31,6.823,38.594,27.492,53.658
	c48.682,35.48,178.948,30.545,296.522-31.873C441.882,231.271,430.379,224.093,416.291,216.452z"/>
<g>
</g>
<g>
</g>
<g>
</g>
<g>
</g>
<g>
</g>
<g>
</g>
<g>
</g>
<g>
</g>
<g>
</g>
<g>
</g>
<g>
</g>
<g>
</g>
<g>
</g>
<g>
</g>
<g>
</g>
</svg>
