<?xml version="1.0" encoding="iso-8859-1"?>
<!-- Generator: Adobe Illustrator 19.0.0, SVG Export Plug-In . SVG Version: 6.00 Build 0)  -->
<svg version="1.1" id="Capa_1" xmlns="http://www.w3.org/2000/svg" xmlns:xlink="http://www.w3.org/1999/xlink" x="0px" y="0px"
	 viewBox="0 0 512 512" style="enable-background:new 0 0 512 512;" xml:space="preserve">
<g>
	<g>
		<path d="M143.775,156.315c-4.142,0-7.5,3.358-7.5,7.5v8.016c0,9.125-7.424,16.548-16.549,16.548s-16.548-7.423-16.548-16.548
			v-8.016c0-9.125,7.423-16.548,16.548-16.548c4.142,0,7.5-3.358,7.5-7.5c0-4.142-3.358-7.5-7.5-7.5
			c-17.396,0-31.548,14.152-31.548,31.548v8.016c0,17.396,14.153,31.548,31.549,31.548s31.548-14.152,31.548-31.548v-8.016
			C151.275,159.673,147.917,156.315,143.775,156.315z"/>
	</g>
</g>
<g>
	<g>
		<path d="M508.571,245.693c-2.696-1.742-6.2-1.576-8.719,0.414c-0.291,0.23-26.902,20.828-67.431,19.223
			c8.116-7.098,16.234-14.811,24.344-23.133c2.531-2.597,2.841-6.633,0.736-9.586c-2.104-2.954-6.022-3.979-9.301-2.434
			c-0.189,0.09-19.253,8.819-48.793,1.747c-51.161-12.247-91.324-61.765-116.009-101.149c-18.273-29.154-44.89-50.367-75.775-60.637
			l16.914-21.991c1.727-2.245,2.042-5.272,0.813-7.824c-1.229-2.553-3.79-4.195-6.622-4.247c-1.567-0.018-38.96-0.479-79.695,18.753
			c-24.058,11.359-44.255,27.248-60.031,47.225c-13.607,17.232-23.885,37.509-30.728,60.532L4.593,180.95
			c-2.445,1.028-4.166,3.271-4.524,5.899c-0.359,2.628,0.698,5.25,2.778,6.896l36.84,29.146
			c0.385,48.986,17.081,93.114,49.026,128.873c37.716,42.22,93.459,68.71,155.814,74.744l-17.21,34.42h-43.462
			c-4.142,0-7.5,3.358-7.5,7.5c0,4.142,3.358,7.5,7.5,7.5h112.226c4.142,0,7.5-3.358,7.5-7.5c0-4.142-3.358-7.5-7.5-7.5h-19.929
			l16.973-33.946c48.092-3.859,94.538-20.807,132.648-48.695c43.318-31.699,73.861-75.905,86.003-124.476
			C512.554,250.698,511.266,247.435,508.571,245.693z M41.208,194.779c-0.013,0.086-0.024,0.172-0.034,0.259
			c-0.35,3.095-0.623,6.169-0.849,9.232l-18.216-14.412l21.592-9.079C42.75,185.354,41.914,190.018,41.208,194.779z
			 M259.381,460.928h-15.294l16.667-33.335c3.742,0.146,7.499,0.238,11.278,0.238c1.306,0,2.611-0.019,3.917-0.039L259.381,460.928z
			 M272.032,412.831c-69.05,0-131.791-25.9-172.133-71.06c-34.941-39.113-50.097-89.224-43.834-144.918
			c5.042-33.841,16.645-62.516,34.488-85.224c14.245-18.13,32.537-32.594,54.366-42.991c22.172-10.561,43.634-14.776,57.59-16.457
			l-13.496,17.548c-1.548,2.012-1.973,4.671-1.128,7.066c0.845,2.395,2.842,4.199,5.311,4.796
			c31.675,7.66,59.196,27.956,77.493,57.148c20.797,33.182,43.192,59.389,66.564,77.894c19.021,15.061,38.758,25.113,58.663,29.877
			c12.142,2.906,22.864,3.489,31.716,3.001c-28.137,25.538-56.063,43.218-83.255,52.676c-27.563,9.586-54.213,10.349-77.067,2.205
			c-12.951-4.615-24.543-12.026-34.061-21.675c11.503,6.209,25.132,9.948,40.665,11.126c3.475,0.263,7.022,0.394,10.623,0.394
			c13.015,0,26.73-1.708,40.232-5.042c4.021-0.993,6.477-5.058,5.483-9.079c-0.993-4.021-5.054-6.473-9.079-5.483
			c-34.682,8.563-67.378,5.104-87.461-9.251c-15.001-10.723-23.613-27.611-25.597-50.198c-0.001-0.01-0.003-0.019-0.004-0.029
			c2.224-23.227,15.3-42.983,37.221-55.477c3.599-2.051,4.853-6.631,2.802-10.23c-2.051-3.599-6.632-4.854-10.23-2.802
			c-31.106,17.729-47.844,49.126-44.773,83.989c3.494,39.668,30.634,74.166,69.144,87.888c26.11,9.304,56.204,8.554,87.03-2.167
			c22.073-7.677,44.469-20.298,66.944-37.694c0.388,0.126,0.792,0.223,1.209,0.286c32.377,4.895,58.368-3.241,74.308-10.79
			C461.335,352.998,372.024,412.831,272.032,412.831z"/>
	</g>
</g>
<g>
	<g>
		<path d="M370.853,258.062c-2.735-3.111-7.474-3.415-10.585-0.68c-2.548,2.241-6.205,4.624-10.573,6.892
			c-3.676,1.909-5.109,6.436-3.2,10.112c1.334,2.573,3.952,4.046,6.662,4.046c1.164,0,2.345-0.272,3.45-0.845
			c5.506-2.859,10.07-5.867,13.566-8.94C373.283,265.912,373.588,261.173,370.853,258.062z"/>
	</g>
</g>
<g>
</g>
<g>
</g>
<g>
</g>
<g>
</g>
<g>
</g>
<g>
</g>
<g>
</g>
<g>
</g>
<g>
</g>
<g>
</g>
<g>
</g>
<g>
</g>
<g>
</g>
<g>
</g>
<g>
</g>
</svg>
