<svg id="Capa_1" enable-background="new 0 0 512 512" height="512" viewBox="0 0 512 512" width="512" xmlns="http://www.w3.org/2000/svg"><g><path d="m26.525 189.515-26.318 90.233c-1.323 4.536 3.975 8.083 7.665 5.131l45.209-35.978z" fill="#e1960f"/><path d="m395.545.558-184.128 95.145v10.259l74.229 161.739 5.192 2.874 111.383-263.839c1.76-4.168-2.656-8.255-6.676-6.178z" fill="#ffe97b"/><path d="m386.677 43.557 15.544-36.82c1.76-4.168-2.657-8.255-6.676-6.178l-184.128 95.144v10.259l17.22 37.52z" fill="#f4dd45"/><path d="m290.838 270.576-9.313-2.96-175.303 88.167-7.562 10.244 244.05 65.967z" fill="#fcc101"/><path d="m301.437 303.559-10.599-32.983-9.313-2.96-175.303 88.167-7.562 10.244 51.105 13.814z" fill="#efac08"/><path d="m128.529 191.316c-.918-1.139-2.303-1.801-3.766-1.801h-98.238l72.135 176.512 62.076-135.162z" fill="#fcc101"/><path d="m67.168 189.515h-40.643l72.135 176.512 21.506-46.827z" fill="#efac08"/><path d="m447.458 504.461-156.62-233.885 60.469 213.08c.458 1.614 1.719 2.875 3.333 3.332l87.479 24.817c4.33 1.228 7.843-3.604 5.339-7.344z" fill="#f4dd45"/><path d="m211.417 95.703-112.757 270.324 192.178-95.451z" fill="#f4dd45"/><path d="m232.14 141.332-20.723-45.629-112.757 270.324 50.145-24.906z" fill="#fcc101"/></g></svg>