<svg id="Layer_1" height="512" viewBox="0 0 512 512" width="512" xmlns="http://www.w3.org/2000/svg" data-name="Layer 1"><path d="m443.554 400.881a33.768 33.768 0 0 0 12.514-2.4l15.709 37.3a6 6 0 1 0 11.059-4.658l-16.457-39.079a33.955 33.955 0 0 0 -32.574-57.669c-6.271-25.788-21.695-45.986-45.482-59.932a6.01 6.01 0 0 0 -1.44-.84c-13.935-7.91-30.653-13.73-50.008-17.328-7.03-69.022-86.5-183.9-89.952-188.858-.071-.1-.146-.2-.223-.3-30.644-38.67-62.615-59.484-95.026-61.862-34.104-2.494-56.074 16.626-58.286 18.645-12.1 10.086-17.472 22.519-15.974 36.96a57.646 57.646 0 0 0 4.22 15.928c-12.988 5.424-42.462 20.1-50.738 44.383-4.574 13.417-2.068 27.457 7.447 41.729.053.081.109.161.168.239.57.771 14.372 19.135 49.929 40.813 29.238 17.826 79.082 41.156 155.262 55.894l-187.978 110.576a6 6 0 0 0 1.38 10.937 184.394 184.394 0 0 0 51.2 7.062c34.1 0 70.2-8.724 106.609-25.969.494-.234.979-.47 1.469-.7l-25.626 37.461a6.006 6.006 0 0 0 -.908 2.1l-21.216 96.438a6 6 0 1 0 11.721 2.578l20.964-95.3 36.876-53.907a5.971 5.971 0 0 0 .625-1.183 330.785 330.785 0 0 0 41.51-28.059c1.413 1.3 2.826 2.569 4.238 3.815l-35.581 42.179a6 6 0 0 0 -1.39 4.4l11.571 129.226a6 6 0 0 0 5.97 5.465c.178 0 .36-.008.542-.024a6 6 0 0 0 5.441-6.511l-11.349-126.738 33.988-40.292a198.713 198.713 0 0 0 19.82 14.008c.078.053.151.111.233.161.046.029.1.048.143.075a156.9 156.9 0 0 0 13.942 7.6l-28.365 27.627a6 6 0 0 0 -1.658 5.655l25.074 108.011a6 6 0 0 0 11.69-2.714l-24.31-104.723 29.559-28.789.088.033c17.046 6.19 33.8 8.043 49.793 5.5a86.924 86.924 0 0 0 20.544-5.918 33.97 33.97 0 0 0 33.243 40.951zm21.967-33.967a21.968 21.968 0 1 1 -21.967-21.967 21.993 21.993 0 0 1 21.967 21.967zm-319.854-349.873c1.747 0 3.539.065 5.366.206 28.807 2.209 57.788 21.446 86.143 57.177 3 4.341 67.257 97.955 84.161 163.683l-194.25-218.528a69.421 69.421 0 0 1 18.58-2.538zm-44.5 15.994c.085-.071.183-.158.264-.233a60.926 60.926 0 0 1 13.618-8.7l191.925 215.909-7.958-4.62c-.071-.04-.141-.079-.212-.117a1156.36 1156.36 0 0 1 -102.987-62.836c-53.317-36.838-87.505-69.125-100.598-94.724a6 6 0 0 0 -.372-.723 51.334 51.334 0 0 1 -5.5-17.37c-1.076-10.399 2.791-19.096 11.824-26.586zm-52.94 123.057c-7.352-11.092-9.307-21.242-5.98-31.028 6.812-20.032 33.827-32.978 44.764-37.494 15.609 26.911 49.758 58.66 102.074 94.8a1170.677 1170.677 0 0 0 104.007 63.455l11.46 6.653a304.808 304.808 0 0 0 -33.32 0c-.108-.023-.215-.051-.326-.068-88.141-13.71-144.04-39.224-175.412-58.21-32.664-19.774-46.21-36.745-47.267-38.108zm228.4 153.265c-.264.231-26.837 23.3-66.848 42.249-33.629 15.932-83.238 31.77-135.178 21.637l182.868-107.573c6.662-.778 41.052-4.243 76.772 2.317a166.506 166.506 0 0 1 34.609 10l-3.546 1.158a58.554 58.554 0 0 0 -31.58 24.827l-18.624 30.116a217.018 217.018 0 0 1 -30.372-24.549 6 6 0 0 0 -8.106-.182zm110.585 44.743c-19.482 2.916-40.4-1.812-61.865-13.776l18.582-30.039a46.535 46.535 0 0 1 25.1-19.731l14.945-4.88c20.493 12.478 33.406 30.2 38.542 53.036a73.5 73.5 0 0 1 -35.304 15.39z"/></svg>